<svg width="32" height="32" viewBox="0 0 32 32" xmlns="http://www.w3.org/2000/svg">
  <defs>
    <linearGradient id="faviconGradient" x1="0%" y1="0%" x2="100%" y2="100%">
      <stop offset="0%" style="stop-color:#007bff;stop-opacity:1" />
      <stop offset="100%" style="stop-color:#0056b3;stop-opacity:1" />
    </linearGradient>
  </defs>
  
  <!-- Background circle -->
  <circle cx="16" cy="16" r="14" fill="url(#faviconGradient)" stroke="#ffffff" stroke-width="1.5"/>
  
  <!-- Dollar sign -->
  <path d="M14 7 L14 5 L18 5 L18 7 M14 25 L14 27 L18 27 L18 25" stroke="#ffffff" stroke-width="1.2" fill="none"/>
  <path d="M12 10 C12 8.5 13.5 7 16 7 C18.5 7 20 8.5 20 10 C20 11.5 18.5 13 16 13 C13.5 13 12 14.5 12 16 C12 17.5 13.5 19 16 19 C18.5 19 20 17.5 20 16" 
        stroke="#ffffff" stroke-width="2" fill="none" stroke-linecap="round"/>
</svg>
