<svg width="200" height="60" viewBox="0 0 200 60" xmlns="http://www.w3.org/2000/svg">
  <defs>
    <linearGradient id="logoGradient" x1="0%" y1="0%" x2="100%" y2="100%">
      <stop offset="0%" style="stop-color:#007bff;stop-opacity:1" />
      <stop offset="100%" style="stop-color:#0056b3;stop-opacity:1" />
    </linearGradient>
    <linearGradient id="textGradient" x1="0%" y1="0%" x2="100%" y2="0%">
      <stop offset="0%" style="stop-color:#2c3e50;stop-opacity:1" />
      <stop offset="100%" style="stop-color:#34495e;stop-opacity:1" />
    </linearGradient>
  </defs>
  
  <!-- Background circle for the icon -->
  <circle cx="30" cy="30" r="24" fill="url(#logoGradient)" stroke="#ffffff" stroke-width="2"/>
  
  <!-- Dollar sign icon -->
  <path d="M26 15 L26 12 L34 12 L34 15 M26 45 L26 48 L34 48 L34 45" stroke="#ffffff" stroke-width="2" fill="none"/>
  <path d="M22 20 C22 17 25 15 30 15 C35 15 38 17 38 20 C38 23 35 25 30 25 C25 25 22 27 22 30 C22 33 25 35 30 35 C35 35 38 33 38 30" 
        stroke="#ffffff" stroke-width="3" fill="none" stroke-linecap="round"/>
  
  <!-- Company name -->
  <text x="65" y="25" font-family="Arial, sans-serif" font-size="24" font-weight="bold" fill="url(#textGradient)">MONET</text>
  <text x="65" y="42" font-family="Arial, sans-serif" font-size="12" fill="#6c757d">Admin Panel</text>
  
  <!-- Small decorative elements -->
  <circle cx="170" cy="15" r="2" fill="#28a745" opacity="0.7"/>
  <circle cx="180" cy="20" r="1.5" fill="#dc3545" opacity="0.7"/>
  <circle cx="175" cy="35" r="1.8" fill="#ffc107" opacity="0.7"/>
</svg>