<svg width="40" height="40" viewBox="0 0 40 40" xmlns="http://www.w3.org/2000/svg">
  <defs>
    <linearGradient id="smallLogoGradient" x1="0%" y1="0%" x2="100%" y2="100%">
      <stop offset="0%" style="stop-color:#007bff;stop-opacity:1" />
      <stop offset="100%" style="stop-color:#0056b3;stop-opacity:1" />
    </linearGradient>
  </defs>
  
  <!-- Background circle -->
  <circle cx="20" cy="20" r="18" fill="url(#smallLogoGradient)" stroke="#ffffff" stroke-width="2"/>
  
  <!-- Dollar sign -->
  <path d="M17 8 L17 6 L23 6 L23 8 M17 32 L17 34 L23 34 L23 32" stroke="#ffffff" stroke-width="1.5" fill="none"/>
  <path d="M14 12 C14 10 16 8 20 8 C24 8 26 10 26 12 C26 14 24 16 20 16 C16 16 14 18 14 20 C14 22 16 24 20 24 C24 24 26 22 26 20" 
        stroke="#ffffff" stroke-width="2.5" fill="none" stroke-linecap="round"/>
</svg>